<svg xmlns="http://www.w3.org/2000/svg" xmlns:xlink="http://www.w3.org/1999/xlink" viewBox="0 0 103.552 146.151">
  <defs>
    <style>
      .cls-1 {
        fill: none;
      }

      .cls-2 {
        fill: #ff3c1f;
      }

      .cls-3 {
        clip-path: url(#clip-path);
      }

      .cls-4 {
        fill: #fff;
      }

      .cls-5 {
        fill: #e7343f;
      }

      .cls-6 {
        fill: #00b4ec;
      }

      .cls-7 {
        fill: #00715b;
      }

      .cls-8 {
        fill: #00a2e2;
      }

      .cls-9 {
        fill: #ed6b65;
      }

      .cls-10 {
        fill: #e40038;
      }

      .cls-11 {
        fill: #a79fa1;
      }

      .cls-12 {
        fill: #8f72b1;
      }

      .cls-13 {
        fill: #814393;
      }

      .cls-14 {
        fill: #702283;
      }

      .cls-15 {
        fill: #999297;
      }

      .cls-16 {
        fill: #b3aaad;
      }

      .cls-17 {
        fill: #787376;
      }

      .cls-18 {
        fill: #5a2583;
      }

      .cls-19 {
        fill: #fdc300;
      }

      .cls-20 {
        fill: #ffda6f;
      }

      .cls-21 {
        fill: #fdc649;
      }

      .cls-22 {
        fill: #f9b000;
      }

      .cls-23 {
        fill: #8ccab2;
      }

      .cls-24 {
        fill: #6bbfa3;
      }

      .cls-25 {
        fill: #00907e;
      }

      .cls-26 {
        fill: #00a074;
      }

      .cls-27 {
        fill: #52c3f1;
      }

      .cls-28 {
        fill: #9cd8f7;
      }
    </style>
    <clipPath id="clip-path">
      <path id="Tracé_69" data-name="Tracé 69" class="cls-1" d="M391.759-102.307h79.054v-22.838H391.759Z" transform="translate(-391.759 125.145)"/>
    </clipPath>
  </defs>
  <g id="Groupe_31" data-name="Groupe 31" transform="translate(-2324 -1304.35)">
    <path id="Soustraction_3" data-name="Soustraction 3" class="cls-2" d="M105.545,42.5H22.18L52.68,12h52.872l-.008,30.5h0Z" transform="translate(2322 1408)"/>
    <g id="Groupe_28" data-name="Groupe 28" class="cls-3" transform="translate(2336 1423.554)">
      <g id="Groupe_19" data-name="Groupe 19" transform="translate(37.592 0)">
        <path id="Tracé_59" data-name="Tracé 59" class="cls-4" d="M-6.476-19.512A2.681,2.681,0,0,0-4.3-20.478a4.442,4.442,0,0,0,.8-2.9,4.442,4.442,0,0,0-.8-2.9,2.68,2.68,0,0,0-2.172-.966,2.678,2.678,0,0,0-2.172.966,4.441,4.441,0,0,0-.805,2.9,4.441,4.441,0,0,0,.805,2.9,2.68,2.68,0,0,0,2.172.966m2.789-16.315,3.648-3.644v16.124a7.8,7.8,0,0,1-.483,2.83A5.8,5.8,0,0,1-1.89-18.412,5.945,5.945,0,0,1-4.022-17.1a7.957,7.957,0,0,1-2.749.457,6.157,6.157,0,0,1-2.629-.55,5.853,5.853,0,0,1-2-1.5,6.726,6.726,0,0,1-1.261-2.266A8.847,8.847,0,0,1-13.1-23.8a7.32,7.32,0,0,1,.442-2.615A5.648,5.648,0,0,1-11.411-28.4a5.5,5.5,0,0,1,1.917-1.261,6.656,6.656,0,0,1,2.481-.442,5.948,5.948,0,0,1,1.838.282,3.666,3.666,0,0,1,1.488.9Z" transform="translate(13.101 39.471)"/>
      </g>
      <g id="Groupe_20" data-name="Groupe 20" transform="translate(69.875 21.693)">
        <path id="Tracé_60" data-name="Tracé 60" class="cls-4" d="M-.513-1.119a.477.477,0,0,1-.379-.169.609.609,0,0,1-.145-.41.584.584,0,0,1,.145-.4.492.492,0,0,1,.386-.162.485.485,0,0,1,.38.162.584.584,0,0,1,.145.4.609.609,0,0,1-.145.41.485.485,0,0,1-.386.169" transform="translate(1.037 2.264)"/>
      </g>
      <g id="Groupe_21" data-name="Groupe 21" transform="translate(71.744 17.928)">
        <path id="Tracé_61" data-name="Tracé 61" class="cls-4" d="M-1.618-4.078a.689.689,0,0,0,.559-.248,1.144,1.144,0,0,0,.207-.745,1.143,1.143,0,0,0-.207-.744.689.689,0,0,0-.559-.248.689.689,0,0,0-.559.248,1.143,1.143,0,0,0-.207.744,1.144,1.144,0,0,0,.207.745.689.689,0,0,0,.559.248M-3.273-8.25h.938V-6.5a.932.932,0,0,1,.383-.231A1.518,1.518,0,0,1-1.48-6.8a1.723,1.723,0,0,1,.638.114,1.416,1.416,0,0,1,.493.324,1.454,1.454,0,0,1,.321.51,1.886,1.886,0,0,1,.114.673,2.28,2.28,0,0,1-.114.731,1.734,1.734,0,0,1-.324.583,1.512,1.512,0,0,1-.514.386,1.586,1.586,0,0,1-.676.141,2.041,2.041,0,0,1-.707-.117A1.525,1.525,0,0,1-2.8-3.8a1.5,1.5,0,0,1-.352-.541,2.012,2.012,0,0,1-.124-.728Z" transform="translate(3.273 8.25)"/>
      </g>
      <g id="Groupe_22" data-name="Groupe 22" transform="translate(75.709 19.376)">
        <path id="Tracé_62" data-name="Tracé 62" class="cls-4" d="M-2.346-1.193a.551.551,0,0,0-.152-.39.605.605,0,0,0-.462-.162.868.868,0,0,0-.518.148.862.862,0,0,0-.3.4ZM-1.429.951l-.165.031c-.065.011-.145.021-.242.031s-.211.017-.345.024-.289.01-.469.01A3.6,3.6,0,0,1-3.5.955a1.827,1.827,0,0,1-.662-.3A1.354,1.354,0,0,1-4.594.11a2.015,2.015,0,0,1-.152-.827,1.613,1.613,0,0,1,.131-.638A1.684,1.684,0,0,1-4.246-1.9a1.819,1.819,0,0,1,.569-.376,1.856,1.856,0,0,1,.738-.142,1.905,1.905,0,0,1,.59.09,1.349,1.349,0,0,1,.49.276,1.329,1.329,0,0,1,.334.472A1.726,1.726,0,0,1-1.4-.89v.145c0,.055,0,.108-.007.158H-3.863a.98.98,0,0,0,.117.421A.715.715,0,0,0-3.484.1a1.147,1.147,0,0,0,.4.135A3.3,3.3,0,0,0-2.56.269,6.956,6.956,0,0,0-1.829.238a2.584,2.584,0,0,0,.4-.066Z" transform="translate(4.746 2.414)"/>
      </g>
      <g id="Groupe_23" data-name="Groupe 23" transform="translate(0 3.732)">
        <path id="Tracé_63" data-name="Tracé 63" class="cls-4" d="M-6.293-15.863a2.68,2.68,0,0,0,2.172-.966,4.441,4.441,0,0,0,.805-2.9,4.441,4.441,0,0,0-.805-2.9,2.678,2.678,0,0,0-2.172-.966,2.68,2.68,0,0,0-2.172.966,4.442,4.442,0,0,0-.8,2.9,4.442,4.442,0,0,0,.8,2.9,2.681,2.681,0,0,0,2.172.966M-12.73-32.09h3.648v6.812a3.659,3.659,0,0,1,1.488-.9,5.945,5.945,0,0,1,1.838-.282,6.658,6.658,0,0,1,2.481.442,5.507,5.507,0,0,1,1.918,1.261A5.654,5.654,0,0,1-.111-22.77a7.32,7.32,0,0,1,.442,2.615,8.847,8.847,0,0,1-.442,2.843,6.735,6.735,0,0,1-1.261,2.266,5.863,5.863,0,0,1-2,1.5A6.159,6.159,0,0,1-6-12.993a7.951,7.951,0,0,1-2.749-.457,5.945,5.945,0,0,1-2.132-1.314,5.8,5.8,0,0,1-1.368-2.106,7.8,7.8,0,0,1-.483-2.83Z" transform="translate(12.73 32.09)"/>
      </g>
      <g id="Groupe_24" data-name="Groupe 24" transform="translate(15.71 9.687)">
        <path id="Tracé_64" data-name="Tracé 64" class="cls-4" d="M0-9.481v-9.7H3.648v6.051Z" transform="translate(0 19.18)"/>
      </g>
      <g id="Groupe_25" data-name="Groupe 25" transform="translate(15.522 3.732)">
        <path id="Tracé_65" data-name="Tracé 65" class="cls-4" d="M-1.993-4.353a1.847,1.847,0,0,1-1.475-.657,2.367,2.367,0,0,1-.563-1.6,2.269,2.269,0,0,1,.563-1.569,1.916,1.916,0,0,1,1.5-.63,1.887,1.887,0,0,1,1.475.63A2.269,2.269,0,0,1,.072-6.606a2.367,2.367,0,0,1-.563,1.6,1.878,1.878,0,0,1-1.5.657" transform="translate(4.031 8.805)"/>
      </g>
      <g id="Groupe_26" data-name="Groupe 26" transform="translate(22.033 0)">
        <path id="Tracé_66" data-name="Tracé 66" class="cls-4" d="M-6.476-19.512A2.681,2.681,0,0,0-4.3-20.478a4.442,4.442,0,0,0,.8-2.9,4.442,4.442,0,0,0-.8-2.9,2.68,2.68,0,0,0-2.172-.966,2.678,2.678,0,0,0-2.172.966,4.441,4.441,0,0,0-.805,2.9,4.441,4.441,0,0,0,.805,2.9,2.68,2.68,0,0,0,2.172.966m2.789-16.315,3.648-3.644v16.124a7.8,7.8,0,0,1-.483,2.83A5.8,5.8,0,0,1-1.89-18.412,5.945,5.945,0,0,1-4.022-17.1a7.956,7.956,0,0,1-2.749.457,6.156,6.156,0,0,1-2.628-.55,5.853,5.853,0,0,1-2-1.5,6.718,6.718,0,0,1-1.261-2.266A8.847,8.847,0,0,1-13.1-23.8a7.32,7.32,0,0,1,.442-2.615A5.647,5.647,0,0,1-11.412-28.4a5.5,5.5,0,0,1,1.918-1.261,6.656,6.656,0,0,1,2.481-.442,5.948,5.948,0,0,1,1.838.282,3.666,3.666,0,0,1,1.488.9Z" transform="translate(13.101 39.471)"/>
      </g>
      <path id="Tracé_67" data-name="Tracé 67" class="cls-4" d="M498.85-111.81H502.5v12.821H498.85Zm0,12.821,1.851-14.322a1.848,1.848,0,0,1-1.475-.657,2.367,2.367,0,0,1-.563-1.6,2.268,2.268,0,0,1,.563-1.569,1.916,1.916,0,0,1,1.5-.63,1.887,1.887,0,0,1,1.476.63,2.27,2.27,0,0,1,.563,1.569,2.369,2.369,0,0,1-.563,1.6,1.879,1.879,0,0,1-1.5.657" transform="translate(-444.605 121.496)"/>
      <g id="Groupe_27" data-name="Groupe 27" transform="translate(61.192 6.182)">
        <path id="Tracé_68" data-name="Tracé 68" class="cls-4" d="M-7.106-15.994a3.756,3.756,0,0,1-.885.214A8.558,8.558,0,0,1-9.2-15.7a6.079,6.079,0,0,1-2.106-.348,4.619,4.619,0,0,1-1.636-1.006A4.449,4.449,0,0,1-14-18.676a6.106,6.106,0,0,1-.376-2.226V-32.355h3.647v3.494h3.219v2.817h-3.219V-20.9a2.3,2.3,0,0,0,.5,1.515,1.718,1.718,0,0,0,1.408.6,4.75,4.75,0,0,0,.952-.081,5.726,5.726,0,0,0,.765-.214Z" transform="translate(14.374 32.355)"/>
      </g>
    </g>
    <g id="Groupe_29" data-name="Groupe 29" transform="translate(2324 1304.35)">
      <path id="Tracé_15" data-name="Tracé 15" class="cls-5" d="M274.9,91.6l-12.7,31.247h12.7Z" transform="translate(-171.471 -59.904)"/>
      <path id="Tracé_16" data-name="Tracé 16" class="cls-5" d="M210.1,37.4l18.028,25.156,12.7-6.4Z" transform="translate(-137.399 -24.458)"/>
      <path id="Tracé_17" data-name="Tracé 17" class="cls-6" d="M149.4,0V14.568l21,12.665Z" transform="translate(-97.703)"/>
      <path id="Tracé_18" data-name="Tracé 18" class="cls-7" d="M210.1,78.7l17.994,10.865Z" transform="translate(-137.399 -51.467)"/>
      <path id="Tracé_19" data-name="Tracé 19" class="cls-8" d="M109.7,0l-21,27.233,21-12.665Z" transform="translate(-58.007)"/>
      <path id="Tracé_20" data-name="Tracé 20" class="cls-9" d="M210.1,37.4V51.691l18.028,10.865Z" transform="translate(-137.399 -24.458)"/>
      <path id="Tracé_21" data-name="Tracé 21" class="cls-10" d="M274.9,91.6,262.2,98v24.845Z" transform="translate(-171.471 -59.904)"/>
      <path id="Tracé_22" data-name="Tracé 22" class="cls-11" d="M0,91.6v31.247H12.7Z" transform="translate(0 -59.904)"/>
      <path id="Tracé_23" data-name="Tracé 23" class="cls-12" d="M12.7,181.9H0v36.887Z" transform="translate(0 -118.957)"/>
      <path id="Tracé_24" data-name="Tracé 24" class="cls-13" d="M12.8,253.7.1,265.742H30.758v-.035Z" transform="translate(-0.065 -165.912)"/>
      <path id="Tracé_25" data-name="Tracé 25" class="cls-14" d="M12.7,181.9h0L0,218.787l12.7-12.042Z" transform="translate(0 -118.957)"/>
      <path id="Tracé_26" data-name="Tracé 26" class="cls-15" d="M30.693,37.4,0,56.155l12.7,6.4Z" transform="translate(0 -24.458)"/>
      <path id="Tracé_27" data-name="Tracé 27" class="cls-16" d="M54.694,37.4h0L36.7,62.556,54.694,51.691Z" transform="translate(-24.001 -24.458)"/>
      <path id="Tracé_28" data-name="Tracé 28" class="cls-17" d="M0,91.6l12.7,31.247V98Z" transform="translate(0 -59.904)"/>
      <path id="Tracé_29" data-name="Tracé 29" class="cls-18" d="M54.694,253.7H36.7l17.994,12.007Zm.035,12.007Z" transform="translate(-24.001 -165.912)"/>
      <path id="Tracé_30" data-name="Tracé 30" class="cls-19" d="M109.7,253.7H88.735v12.007Z" transform="translate(-58.007 -165.912)"/>
      <path id="Tracé_31" data-name="Tracé 31" class="cls-20" d="M109.77,253.7h0L88.8,265.707v.035h20.97Z" transform="translate(-58.072 -165.912)"/>
      <path id="Tracé_32" data-name="Tracé 32" class="cls-21" d="M149.4,253.7v12.042h21v-.035Z" transform="translate(-97.703 -165.912)"/>
      <path id="Tracé_33" data-name="Tracé 33" class="cls-22" d="M170.4,253.7h-21l21,12.007Z" transform="translate(-97.703 -165.912)"/>
      <path id="Tracé_34" data-name="Tracé 34" class="cls-23" d="M274.9,181.9H262.2l12.7,36.887Z" transform="translate(-171.471 -118.957)"/>
      <path id="Tracé_35" data-name="Tracé 35" class="cls-24" d="M228.094,253.7,210.1,265.707h30.693ZM210.1,265.742Z" transform="translate(-137.399 -165.912)"/>
      <path id="Tracé_36" data-name="Tracé 36" class="cls-25" d="M262.2,181.9h0v24.845l12.7,12.042Z" transform="translate(-171.471 -118.957)"/>
      <path id="Tracé_37" data-name="Tracé 37" class="cls-26" d="M228.094,253.7H210.135v12.007ZM210.1,265.707Z" transform="translate(-137.399 -165.912)"/>
      <path id="Tracé_38" data-name="Tracé 38" class="cls-27" d="M109.7,0l-21,12.942V27.233Z" transform="translate(-58.007)"/>
      <path id="Tracé_39" data-name="Tracé 39" class="cls-28" d="M149.4,0l21,27.233V12.942Z" transform="translate(-97.703)"/>
      <g id="Groupe_8" data-name="Groupe 8" transform="translate(18.132 39.759)">
        <g id="Groupe_5" data-name="Groupe 5" transform="translate(35.053)">
          <path id="Tracé_40" data-name="Tracé 40" class="cls-4" d="M167.776,114.9h3.979v5.986h2.007l-4.049,5.433-4.014-5.433h2.076Z" transform="translate(-161.548 -114.9)"/>
          <path id="Tracé_41" data-name="Tracé 41" class="cls-4" d="M157.783,132.8l4.083,5.467,4.152-5.4,3.979,5.4h-2.076v5.986h-3.945v-5.986h-4.222v5.986h-3.979v-5.986H153.7Z" transform="translate(-153.7 -126.606)"/>
        </g>
        <path id="Tracé_42" data-name="Tracé 42" class="cls-4" d="M130.3,167.1s20.243-9.377,41.316.138C171.582,167.239,150.2,160.595,130.3,167.1Z" transform="translate(-103.344 -146.338)"/>
        <g id="Groupe_6" data-name="Groupe 6" transform="translate(26.887 20.693)">
          <path id="Tracé_43" data-name="Tracé 43" class="cls-4" d="M130.1,181.973h1v.934h.035a2.824,2.824,0,0,1,2.318-1.107,3.173,3.173,0,0,1,2.422.9,3.507,3.507,0,0,1,.934,2.6v4.049h-1v-4.049a2.689,2.689,0,0,0-.727-2.007,2.34,2.34,0,0,0-3.253,0,2.705,2.705,0,0,0-.692,1.938v4.118h-1v-7.336H130.1Z" transform="translate(-130.1 -179.343)"/>
          <path id="Tracé_44" data-name="Tracé 44" class="cls-4" d="M154.338,185.822a2.987,2.987,0,0,0,2.907,2.664,2.88,2.88,0,0,0,2.7-1.73h1.038a3.978,3.978,0,0,1-3.737,2.6,3.876,3.876,0,1,1,0-7.751,3.988,3.988,0,0,1,3.979,3.979v.242Zm5.952-.865a3.014,3.014,0,0,0-2.976-2.526,2.981,2.981,0,0,0-2.976,2.526Z" transform="translate(-145.272 -179.212)"/>
          <path id="Tracé_45" data-name="Tracé 45" class="cls-4" d="M180.6,181.973h1v1.073h.035a2.187,2.187,0,0,1,2.145-1.246v1a2.312,2.312,0,0,0-1.626.727,2.228,2.228,0,0,0-.519,1.488v4.291h-1v-7.336Z" transform="translate(-163.125 -179.343)"/>
          <path id="Tracé_46" data-name="Tracé 46" class="cls-4" d="M199.455,188.036a4.162,4.162,0,0,1-.692,2.7,3.992,3.992,0,0,1-3.01,1.384,3.833,3.833,0,0,1-3.876-2.7h1.038a2.938,2.938,0,0,0,2.837,1.834,2.565,2.565,0,0,0,2.734-2.734v-.657h-.035a3.242,3.242,0,0,1-2.907,1.488,3.872,3.872,0,0,1-3.945-3.841,3.932,3.932,0,0,1,3.945-3.91,3.427,3.427,0,0,1,2.907,1.488h.035v-1.35h1v6.229h-.035Zm-3.91.45a3.041,3.041,0,0,0,3.01-3.01,3.01,3.01,0,1,0-3.01,3.01Z" transform="translate(-170.319 -179.212)"/>
          <path id="Tracé_47" data-name="Tracé 47" class="cls-4" d="M219.7,174.7h1v1.661h-1Zm0,2.63h1v7.336h-1Z" transform="translate(-188.696 -174.7)"/>
          <path id="Tracé_48" data-name="Tracé 48" class="cls-4" d="M227.538,185.822a2.987,2.987,0,0,0,2.907,2.664,2.881,2.881,0,0,0,2.7-1.73h1.038a3.978,3.978,0,0,1-3.737,2.6,3.876,3.876,0,1,1,0-7.751,3.988,3.988,0,0,1,3.979,3.979v.242Zm5.883-.865a3.014,3.014,0,0,0-2.976-2.526,2.981,2.981,0,0,0-2.976,2.526Z" transform="translate(-193.143 -179.212)"/>
        </g>
        <g id="Groupe_7" data-name="Groupe 7" transform="translate(0 8.236)">
          <path id="Tracé_49" data-name="Tracé 49" class="cls-4" d="M59.909,150.363a3.879,3.879,0,0,1-3.6,2.318,3.826,3.826,0,0,1-3.91-3.841,3.918,3.918,0,0,1,7.509-1.488H58.871a2.872,2.872,0,0,0-2.6-1.557,2.993,2.993,0,1,0,0,5.986,2.9,2.9,0,0,0,2.6-1.453h1.038Z" transform="translate(-52.4 -142.82)"/>
          <path id="Tracé_50" data-name="Tracé 50" class="cls-4" d="M78.165,149.287A2.889,2.889,0,0,0,81,151.917a2.815,2.815,0,0,0,2.63-1.73h1a3.774,3.774,0,0,1-7.336-1.246,3.863,3.863,0,0,1,3.772-3.841,3.7,3.7,0,0,1,3.218,1.834,3.84,3.84,0,0,1,.554,2.007v.242H78.165Zm5.675-.865A2.873,2.873,0,0,0,81,145.93a2.825,2.825,0,0,0-2.837,2.491Z" transform="translate(-68.684 -142.885)"/>
          <path id="Tracé_51" data-name="Tracé 51" class="cls-4" d="M103.1,145.708h.934v1.038h.035a2.017,2.017,0,0,1,2.076-1.246v1a2.149,2.149,0,0,0-1.557.727,2.348,2.348,0,0,0-.519,1.488v4.256h-.934v-7.267Z" transform="translate(-85.556 -143.147)"/>
          <path id="Tracé_52" data-name="Tracé 52" class="cls-4" d="M114.157,142.126H112.6v-.83h1.557v-2.6h.934v2.6h1.73v.83h-1.73v6.436h-.934Z" transform="translate(-91.769 -138.7)"/>
          <path id="Tracé_53" data-name="Tracé 53" class="cls-4" d="M127.6,138.8h.934v1.661H127.6Zm0,2.526h.934v7.267H127.6Z" transform="translate(-101.578 -138.765)"/>
        </g>
      </g>
    </g>
  </g>
</svg>
