<svg xmlns="http://www.w3.org/2000/svg" viewBox="0 0 1467.64 721.08"><defs><style>.cls-1{fill:#1c2c63;}.cls-2{fill:#8dc63f;}</style></defs><title>Fichier 1</title><g id="Calque_2" data-name="Calque 2"><g id="Layer_1" data-name="Layer 1"><polygon class="cls-1" points="887.69 0 972.77 0 972.77 129.21 1016.91 129.21 929.53 245.24 842.64 129.21 888.13 129.21 887.69 0"/><polygon class="cls-2" points="841.72 133.76 929.53 251.15 1018.27 134.22 1104.71 250.69 1060.14 250.69 1060.14 379.47 975.05 379.47 975.05 250.69 884.05 250.69 884.05 379.47 798.96 379.47 798.96 251.15 753.9 251.15 841.72 133.76"/><path class="cls-2" d="M579.94,446.27s435.29-201.75,887.7,3.18C1467.67,449.46,1007.59,306.49,579.94,446.27Z"/><path class="cls-2" d="M579,500.72H599.8V521h.59c6.25-9.55,22.34-24.29,50-24.29,19.94,0,36.63,4.9,51.51,19.37,12.21,11.57,20.24,29.79,20.24,55.81v87H701.33v-87c0-20.54-6.56-35-15.48-43.37-11.32-10.7-26.2-13.6-35.44-13.6s-24.1,2.9-35.43,13.6c-8.62,8.09-15.18,22.25-15.18,41.92v88.49H579Z"/><path class="cls-2" d="M774,587.2c1.46,30.94,31.24,57.24,63.1,57.24,29.78-.56,50.91-17.62,58.36-37.29h22c-11.32,31.52-42.56,55.52-80.09,55.52-45.55,0-84.83-35.85-84.83-82.7,0-44.83,37.2-82.42,84.54-83.28,35.74.28,61,20.82,72.66,40.48a81.39,81.39,0,0,1,12.8,44.23c0,2-.31,3.77-.31,5.8ZM901.08,569c-6.56-37.31-37.81-54.08-63.73-54.08-25.59,0-57.45,16.77-63.39,54.08Z"/><path class="cls-2" d="M954.06,500.72h20.82v22.86h.6c9.83-22.27,28.29-25.74,45.85-26.91v21.4c-14.58,1.17-27.09,6.36-35.13,15.62a50.88,50.88,0,0,0-11.32,32.69v92.53H954.06Z"/><path class="cls-2" d="M1205,634.05c0,17.06,0,38.45-14.89,57.83-20.54,27.75-58.05,29.2-64.59,29.2-23.24,0-68.49-8.67-83.39-58.13h22c5.37,13,21.44,39.92,61,39.92,27.4,0,59-15.34,59-59V630h-.6c-12.21,22.54-39,32.67-62.83,32.67-42.88,0-85.14-32.39-85.14-82.12,0-50.33,42.26-83.88,85.14-83.88,14.9,0,44.07,4.34,62.83,32.39h.6V500.72H1205Zm-84.26,10.39c43.17,0,64.62-37.59,64.62-64.47,0-34.72-28-65.07-64.62-65.07-36.92,0-64.31,30.35-64.31,65.07C1056.45,614.37,1083.84,644.44,1120.76,644.44Z"/><path class="cls-2" d="M1244.3,444.92h20.83v36.43H1244.3Zm0,55.8h20.83V658.91H1244.3Z"/><path class="cls-2" d="M1317.23,587.2c1.49,30.94,31.26,57.24,63.12,57.24,29.77-.56,50.91-17.62,58.35-37.29h22c-11.32,31.52-42.59,55.52-80.09,55.52-45.56,0-84.85-35.85-84.85-82.7,0-44.83,37.2-82.42,84.55-83.3,35.71.3,61,20.84,72.64,40.5a81.49,81.49,0,0,1,12.81,44.23c0,2-.3,3.77-.3,5.8ZM1444.36,569c-6.55-37.31-37.83-54.08-63.71-54.08-25.62,0-57.47,16.77-63.42,54.08Z"/><path class="cls-1" d="M161.59,339.19c-10,19.41-30.83,49.67-77.65,49.67C35.12,388.86,0,350.61,0,306.92,0,261.81,37.4,225,83.94,225c27.4,0,62.51,13.71,77.65,51.1h-22C127,252.39,104.2,243,84.5,243,54,243,20,265.8,20,306.64c0,35.11,27.12,64.24,64.52,64.24,32.55,0,48.83-19.71,55.1-31.69Z"/><path class="cls-1" d="M204.4,314.35c1.43,30.55,30,56.53,60.52,56.53,28.55-.58,48.82-17.42,56-36.84H342c-10.84,31.12-40.82,54.82-76.8,54.82a81.57,81.57,0,0,1-81.36-81.65c0-44.25,35.69-81.37,81.08-82.22a81.12,81.12,0,0,1,69.67,40,82.17,82.17,0,0,1,12.27,43.68c0,2-.29,3.71-.29,5.71Zm121.91-18C320,259.53,290,243,265.2,243c-24.54,0-55.09,16.56-60.8,53.39Z"/><path class="cls-1" d="M377.11,232.69h20v22.56h.57c9.41-22,27.12-25.41,44-26.55v21.13c-14,1.14-26,6.27-33.69,15.41-6.85,8.57-10.84,19.69-10.84,32.26v91.36h-20Z"/><path class="cls-1" d="M481.3,250.69H448.48v-18H481.3V177.61h20v55.08h37.39v18H501.3V388.86h-20Z"/><path class="cls-1" d="M559.81,177.61h20v36h-20Zm0,55.08h20V388.86h-20Z"/></g></g></svg>